<svg xmlns="http://www.w3.org/2000/svg" width="22.632" height="22.632" viewBox="0 0 22.632 22.632">
    <g id="flag-for-yemen-svgrepo-com_1_"  transform="translate(-2 -2)">
        <path id="Path_6"  d="M14.375,2A11.33,11.33,0,0,0,3.7,9.544H25.05A11.33,11.33,0,0,0,14.375,2Z" transform="translate(-1.059)" fill="#c94747"/>
        <path id="Path_7"  d="M14.375,49.544A11.279,11.279,0,0,0,25.05,42H3.7A11.279,11.279,0,0,0,14.375,49.544Z" transform="translate(-1.059 -24.912)" fill="#3e4347"/>
        <path id="Path_8"  d="M2.641,22a11.415,11.415,0,0,0,0,7.544h21.35a11.415,11.415,0,0,0,0-7.544Z" transform="translate(0 -12.456)" fill="#f9f9f9"/>
    </g>
</svg>
