<svg xmlns="http://www.w3.org/2000/svg" width="76.195" height="97.338" viewBox="0 0 76.195 97.338">
    <g id="Password" transform="translate(-76 -26.053)">
        <path id="Path_1"  d="M142.67,233.948H85.524A9.552,9.552,0,0,0,76,243.472V277.76a9.552,9.552,0,0,0,9.524,9.524H142.67a9.552,9.552,0,0,0,9.524-9.524V243.472A9.552,9.552,0,0,0,142.67,233.948ZM98.884,262.612a2.094,2.094,0,1,1-2.095,3.627l-3.456-2v3.992a2.095,2.095,0,1,1-4.189,0v-3.992l-3.456,2a2.094,2.094,0,1,1-2.095-3.627l3.457-2-3.457-2a2.094,2.094,0,1,1,2.095-3.627l3.456,2V253a2.095,2.095,0,0,1,4.189,0v3.991l3.456-2a2.094,2.094,0,1,1,2.095,3.627l-3.457,2Zm22.858,0a2.094,2.094,0,1,1-2.095,3.627l-3.456-2v3.992a2.095,2.095,0,1,1-4.189,0v-3.992l-3.456,2a2.094,2.094,0,1,1-2.095-3.627l3.457-2-3.457-2a2.094,2.094,0,0,1,2.095-3.627l3.456,2V253a2.095,2.095,0,0,1,4.189,0v3.991l3.456-2a2.094,2.094,0,0,1,2.095,3.627l-3.457,2Zm22.858,0a2.094,2.094,0,1,1-2.095,3.627l-3.456-2v3.992a2.095,2.095,0,1,1-4.189,0v-3.992l-3.456,2a2.094,2.094,0,1,1-2.095-3.627l3.457-2-3.457-2a2.094,2.094,0,1,1,2.095-3.627l3.456,2V253a2.095,2.095,0,1,1,4.189,0v3.991l3.456-2a2.094,2.094,0,1,1,2.095,3.627l-3.457,2Z" transform="translate(0 -163.894)" fill="#1fbbe3"/>
        <path id="Path_2"  d="M142.292,51.006a20.764,20.764,0,1,1,41.528,0V65.863h4.189V51.006a24.953,24.953,0,1,0-49.906,0V65.863h4.189Z" transform="translate(-48.959 0)" fill="#1fbbe3"/>
    </g>
</svg>
